<?xml version="1.0" encoding="UTF-8" standalone="no"?>
<!DOCTYPE svg PUBLIC "-//W3C//DTD SVG 1.1//EN"
 "http://www.w3.org/Graphics/SVG/1.1/DTD/svg11.dtd">
<!-- Generated by graphviz version 2.40.1 (20161225.0304)
 -->
<!-- Title: models_diagram Pages: 1 -->
<svg width="653pt" height="232pt"
 viewBox="0.00 0.00 653.31 232.00" xmlns="http://www.w3.org/2000/svg" xmlns:xlink="http://www.w3.org/1999/xlink">
<g id="graph0" class="graph" transform="scale(1 1) rotate(0) translate(4 228)">
<title>models_diagram</title>
<polygon fill="transparent" stroke="transparent" points="-4,4 -4,-228 649.312,-228 649.312,4 -4,4"/>
<!-- _diagram_info -->
<g id="node1" class="node">
<title>_diagram_info</title>
<text text-anchor="start" x="8" y="-202.6" font-family="Times,serif" font-size="13.00" fill="#000000">Models diagram</text>
<text text-anchor="start" x="8" y="-189.6" font-family="Times,serif" font-size="13.00" fill="#000000">Date: Jul 03 2017 &#45; 21:44</text>
<text text-anchor="start" x="8" y="-176.6" font-family="Times,serif" font-size="13.00" fill="#000000">Migration version: 20170704011715</text>
<text text-anchor="start" x="8" y="-163.6" font-family="Times,serif" font-size="13.00" fill="#000000">Generated by RailRoady 1.5.3</text>
<text text-anchor="start" x="8" y="-150.6" font-family="Times,serif" font-size="13.00" fill="#000000">http://railroady.prestonlee.com</text>
</g>
<!-- ApplicationRecord -->
<g id="node2" class="node">
<title>ApplicationRecord</title>
<ellipse fill="none" stroke="#000000" cx="302.4497" cy="-180.5" rx="77.2916" ry="18"/>
<text text-anchor="middle" x="302.4497" y="-176.3" font-family="Times,serif" font-size="14.00" fill="#000000">ApplicationRecord</text>
</g>
<!-- Comment -->
<g id="node3" class="node">
<title>Comment</title>
<path fill="none" stroke="#000000" d="M409.5874,-.5C409.5874,-.5 633.312,-.5 633.312,-.5 639.312,-.5 645.312,-6.5 645.312,-12.5 645.312,-12.5 645.312,-88.5 645.312,-88.5 645.312,-94.5 639.312,-100.5 633.312,-100.5 633.312,-100.5 409.5874,-100.5 409.5874,-100.5 403.5874,-100.5 397.5874,-94.5 397.5874,-88.5 397.5874,-88.5 397.5874,-12.5 397.5874,-12.5 397.5874,-6.5 403.5874,-.5 409.5874,-.5"/>
<text text-anchor="middle" x="521.4497" y="-85.3" font-family="Times,serif" font-size="14.00" fill="#000000">Comment</text>
<polyline fill="none" stroke="#000000" points="397.5874,-78.5 645.312,-78.5 "/>
<text text-anchor="start" x="405.5874" y="-63.3" font-family="Times,serif" font-size="14.00" fill="#000000">id :integer</text>
<text text-anchor="start" x="405.5874" y="-49.3" font-family="Times,serif" font-size="14.00" fill="#000000">post_id :integer</text>
<text text-anchor="start" x="405.5874" y="-35.3" font-family="Times,serif" font-size="14.00" fill="#000000">content :text</text>
<text text-anchor="start" x="405.5874" y="-21.3" font-family="Times,serif" font-size="14.00" fill="#000000">created_at :timestamp without time zone</text>
<text text-anchor="start" x="405.5874" y="-7.3" font-family="Times,serif" font-size="14.00" fill="#000000">updated_at :timestamp without time zone</text>
</g>
<!-- Post -->
<g id="node4" class="node">
<title>Post</title>
<path fill="none" stroke="#000000" d="M409.5874,-137.5C409.5874,-137.5 633.312,-137.5 633.312,-137.5 639.312,-137.5 645.312,-143.5 645.312,-149.5 645.312,-149.5 645.312,-211.5 645.312,-211.5 645.312,-217.5 639.312,-223.5 633.312,-223.5 633.312,-223.5 409.5874,-223.5 409.5874,-223.5 403.5874,-223.5 397.5874,-217.5 397.5874,-211.5 397.5874,-211.5 397.5874,-149.5 397.5874,-149.5 397.5874,-143.5 403.5874,-137.5 409.5874,-137.5"/>
<text text-anchor="middle" x="521.4497" y="-208.3" font-family="Times,serif" font-size="14.00" fill="#000000">Post</text>
<polyline fill="none" stroke="#000000" points="397.5874,-201.5 645.312,-201.5 "/>
<text text-anchor="start" x="405.5874" y="-186.3" font-family="Times,serif" font-size="14.00" fill="#000000">id :integer</text>
<text text-anchor="start" x="405.5874" y="-172.3" font-family="Times,serif" font-size="14.00" fill="#000000">content :text</text>
<text text-anchor="start" x="405.5874" y="-158.3" font-family="Times,serif" font-size="14.00" fill="#000000">created_at :timestamp without time zone</text>
<text text-anchor="start" x="405.5874" y="-144.3" font-family="Times,serif" font-size="14.00" fill="#000000">updated_at :timestamp without time zone</text>
</g>
<!-- Post&#45;&gt;Comment -->
<g id="edge1" class="edge">
<title>Post&#45;&gt;Comment</title>
<path fill="none" stroke="#7cf523" d="M521.4497,-129.1379C521.4497,-123.1635 521.4497,-117.0282 521.4497,-110.9463"/>
<ellipse fill="none" stroke="#7cf523" cx="521.4498" cy="-133.2119" rx="4" ry="4"/>
<polygon fill="#7cf523" stroke="#7cf523" points="521.4498,-110.7992 525.9497,-100.7991 521.4498,-105.7992 521.4497,-100.7992 521.4497,-100.7992 521.4497,-100.7992 521.4498,-105.7992 516.9497,-100.7992 521.4498,-110.7992 521.4498,-110.7992"/>
</g>
</g>
</svg>
