<?xml version="1.0" encoding="UTF-8" standalone="no"?>
<!DOCTYPE svg PUBLIC "-//W3C//DTD SVG 1.1//EN"
 "http://www.w3.org/Graphics/SVG/1.1/DTD/svg11.dtd">
<!-- Generated by graphviz version 2.40.1 (20161225.0304)
 -->
<!-- Title: models_diagram Pages: 1 -->
<svg width="477pt" height="153pt"
 viewBox="0.00 0.00 477.44 153.00" xmlns="http://www.w3.org/2000/svg" xmlns:xlink="http://www.w3.org/1999/xlink">
<g id="graph0" class="graph" transform="scale(1 1) rotate(0) translate(4 149)">
<title>models_diagram</title>
<polygon fill="transparent" stroke="transparent" points="-4,4 -4,-149 473.4381,-149 473.4381,4 -4,4"/>
<!-- _diagram_info -->
<g id="node1" class="node">
<title>_diagram_info</title>
<text text-anchor="start" x="8" y="-130.6" font-family="Times,serif" font-size="13.00" fill="#000000">Models diagram</text>
<text text-anchor="start" x="8" y="-117.6" font-family="Times,serif" font-size="13.00" fill="#000000">Date: Jul 03 2017 &#45; 21:44</text>
<text text-anchor="start" x="8" y="-104.6" font-family="Times,serif" font-size="13.00" fill="#000000">Migration version: 20170704011715</text>
<text text-anchor="start" x="8" y="-91.6" font-family="Times,serif" font-size="13.00" fill="#000000">Generated by RailRoady 1.5.3</text>
<text text-anchor="start" x="8" y="-78.6" font-family="Times,serif" font-size="13.00" fill="#000000">http://railroady.prestonlee.com</text>
</g>
<!-- ApplicationRecord -->
<g id="node2" class="node">
<title>ApplicationRecord</title>
<ellipse fill="none" stroke="#000000" cx="302.4497" cy="-108.5" rx="77.2916" ry="18"/>
<text text-anchor="middle" x="302.4497" y="-104.3" font-family="Times,serif" font-size="14.00" fill="#000000">ApplicationRecord</text>
</g>
<!-- Comment -->
<g id="node3" class="node">
<title>Comment</title>
<ellipse fill="none" stroke="#000000" cx="424.4497" cy="-18" rx="44.9768" ry="18"/>
<text text-anchor="middle" x="424.4497" y="-13.8" font-family="Times,serif" font-size="14.00" fill="#000000">Comment</text>
</g>
<!-- Post -->
<g id="node4" class="node">
<title>Post</title>
<ellipse fill="none" stroke="#000000" cx="424.4497" cy="-108.5" rx="27" ry="18"/>
<text text-anchor="middle" x="424.4497" y="-104.3" font-family="Times,serif" font-size="14.00" fill="#000000">Post</text>
</g>
<!-- Post&#45;&gt;Comment -->
<g id="edge1" class="edge">
<title>Post&#45;&gt;Comment</title>
<path fill="none" stroke="#b41e42" d="M424.4497,-81.9687C424.4497,-70.8402 424.4497,-57.878 424.4497,-46.5429"/>
<ellipse fill="none" stroke="#b41e42" cx="424.4498" cy="-86.186" rx="4" ry="4"/>
<polygon fill="#b41e42" stroke="#b41e42" points="424.4498,-46.2868 428.9497,-36.2867 424.4498,-41.2868 424.4497,-36.2868 424.4497,-36.2868 424.4497,-36.2868 424.4498,-41.2868 419.9497,-36.2868 424.4498,-46.2868 424.4498,-46.2868"/>
</g>
</g>
</svg>
